<?xml version="1.0" encoding="UTF-8"?>
<svg width="220px" height="22px" viewBox="0 0 220 22" version="1.1" xmlns="http://www.w3.org/2000/svg" xmlns:xlink="http://www.w3.org/1999/xlink">
    <!-- Generator: Sketch 64 (93537) - https://sketch.com -->
    <title>Logos / NZGovt-logo-white</title>
    <desc>Created with Sketch.</desc>
    <g id="Logos-/-NZGovt-logo-white" stroke="none" stroke-width="1" fill="none" fill-rule="evenodd">
        <g id="nzgovt_logo" fill="#FFFFFF" fill-rule="nonzero">
            <path d="M0,20.94 C0,20.94 27.6861538,17.86 53.8695385,17.86 C80.6147692,17.86 108.463385,20.94 108.463385,20.94 L108.463385,22 C108.463385,22 80.432,19.0866667 53.8763077,19.0866667 C27.6861538,19.1066667 0,22 0,22 L0,20.94 Z M10.648,15.9133333 L8.25846154,15.9133333 L4.06153846,7.56666667 C3.33514976,6.16779644 2.68880621,4.72999365 2.12553846,3.26 L1.98338462,3.26 C2.09846154,4.59333333 2.14584615,6.18 2.17292308,7.64 L2.26092308,15.8933333 L1.38769231,15.8933333 C0.379076923,15.8933333 0.0338461538,14.9333333 0.0338461538,13.8466667 L0.0338461538,0.206666667 L2.61292308,0.206666667 L7.05353846,8.87333333 C7.66787364,10.1002673 8.19488684,11.3677652 8.63076923,12.6666667 L8.77292308,12.62 C8.72553846,12.16 8.536,9.68 8.536,7.95333333 L8.49538462,0.206666667 L10.648,0.206666667 L10.648,15.9133333 Z M50.336,14.28 L49.7809231,16.1 L40.2633846,16.1 L40.2633846,14.4133333 L46.7076923,4.4 C47.0482239,3.83628996 47.4258515,3.29513345 47.8381538,2.78 C47.3778462,2.82666667 46.7956923,2.84666667 46.0104615,2.84666667 L40.5409231,2.84666667 L41.0756923,1.02666667 L50.2412308,1.02666667 L50.2412308,2.78 L43.8713846,12.78 C43.5261538,13.3733333 43.1538462,13.8333333 42.8763077,14.2866667 C43.3636923,14.2866667 43.8984615,14.2866667 44.4738462,14.2866667 L50.336,14.28 Z M123.545231,14.7 C122.111826,15.5373763 120.473326,15.9730684 118.806769,15.96 C116.881327,16.0517375 115.01972,15.2677499 113.756923,13.8333333 C112.484308,12.38 111.902154,10.5 111.902154,7.95333333 C111.881282,5.60595096 112.884589,3.36268537 114.657231,1.79333333 C115.783665,0.883242735 117.208547,0.409157091 118.664615,0.46 C120.318348,0.399446318 121.935551,0.948571223 123.2,2 L122.137231,3.36666667 C121.177408,2.60613855 119.984497,2.18789649 118.752615,2.18 C117.308226,2.1149699 115.962503,2.90074104 115.327385,4.18 C114.651021,5.36301974 114.329436,6.7107848 114.4,8.06666667 C114.4,10.2333333 114.792615,11.8533333 115.530462,12.8133333 C116.408235,13.7579074 117.663236,14.2747298 118.962462,14.2266667 C119.786728,14.2340485 120.598691,14.0295375 121.318154,13.6333333 L121.318154,9.16 L118.380308,9.16 L118.008,7.36 L123.518154,7.36 L123.518154,14.6933333 L123.545231,14.7 Z M135.154462,10.12 C135.154462,13.7466667 133.184615,16.0466667 130.104615,16.0466667 C127.024615,16.0466667 125.081846,13.72 125.081846,10.0066667 C125.081846,6.29333333 127.004308,4.00666667 130.064,4.00666667 C133.489231,4.00666667 135.154462,6.67333333 135.154462,10.14 L135.154462,10.12 Z M132.771692,10.2133333 C132.771692,6.67333333 131.729231,5.60666667 130.064,5.60666667 C128.209231,5.60666667 127.444308,6.90666667 127.444308,9.78 C127.444308,13.2666667 128.351385,14.4466667 130.152,14.4466667 C131.776615,14.4466667 132.771692,13.22 132.771692,10.2333333 L132.771692,10.2133333 Z M145.802462,4.30666667 L141.571692,15.82 L139.574769,15.82 L135.432,4.35333333 L137.632,4 L139.926769,10.9133333 C140.177231,11.6866667 140.434462,12.6 140.603692,13.3733333 C140.793231,12.7066667 141.023385,11.8 141.348308,10.8666667 L143.548308,4.3 L145.802462,4.30666667 Z M155.502769,10.46 L148.435692,10.46 L148.435692,10.7333333 C148.382705,11.5229759 148.551319,12.3117561 148.923077,13.0133333 C149.511318,13.8896986 150.524641,14.396282 151.590154,14.3466667 C152.64536,14.3559272 153.663603,13.9643515 154.433231,13.2533333 L155.245538,14.5066667 C154.145417,15.4789412 152.716246,16.0115151 151.238154,16 C148.022769,16 146.052923,13.6933333 146.052923,9.96 C146.052923,7.96 146.445538,6.69333333 147.440615,5.53333333 C148.291931,4.48743509 149.593454,3.89716378 150.953846,3.94 C152.132427,3.89728405 153.274869,4.3449173 154.101538,5.17333333 C155.116923,6.2 155.489231,7.47333333 155.516308,10.1 L155.516308,10.46 L155.502769,10.46 Z M153.275692,8.91333333 C153.331963,7.99893439 153.079693,7.09186689 152.558154,6.33333333 C152.160486,5.82507116 151.54443,5.52910918 150.892923,5.53333333 C149.275077,5.53333333 148.462769,6.83333333 148.462769,8.91333333 L153.275692,8.91333333 Z M163.24,4.05333333 L162.495385,6.15333333 C162.30609,6.07810763 162.103816,6.03962407 161.899692,6.04 C160.589992,6.04679879 159.522754,7.07719965 159.489846,8.36666667 L159.489846,15.7 L157.357538,15.7 L157.357538,7.33333333 C157.404231,6.36290804 157.254669,5.39301763 156.917538,4.48 L158.982154,3.95333333 C159.22374,4.5106227 159.35692,5.10763442 159.374769,5.71333333 L159.374769,5.92 C160.295385,4.58666667 161.297231,3.92 162.522462,3.92 C162.766434,3.91745651 163.009071,3.95578028 163.24,4.03333333 L163.24,4.05333333 Z M173.393846,15.7266667 L171.288615,15.7266667 L171.288615,8 C171.288615,6.97333333 171.193846,6.61333333 170.916308,6.24666667 C170.618628,5.91995701 170.18259,5.74966523 169.738462,5.78666667 C168.636229,5.92277241 167.618981,6.4402294 166.868308,7.24666667 L166.868308,15.7266667 L164.756308,15.7266667 L164.756308,7.22666667 C164.816728,6.29906237 164.666415,5.36985923 164.316308,4.50666667 L166.347077,3.96 C166.625659,4.50498707 166.760667,5.1101983 166.739692,5.72 C167.205582,5.30313869 167.708523,4.92830153 168.242462,4.6 C168.89732,4.22892892 169.639562,4.03353687 170.395077,4.03333333 C171.544518,3.99471177 172.60784,4.63089299 173.102769,5.65333333 C173.293844,6.10738927 173.388304,6.59522342 173.380308,7.08666667 L173.380308,15.7533333 L173.393846,15.7266667 Z M190.066462,15.7266667 L187.954462,15.7266667 L187.954462,7.54 C187.954462,6.20666667 187.541538,5.78666667 186.566769,5.78666667 C185.592,5.78666667 184.739077,6.45333333 183.859077,7.34 L183.859077,15.7266667 L181.774154,15.7266667 L181.774154,7.58666667 C181.774154,6.31333333 181.401846,5.83333333 180.339077,5.83333333 C179.310458,5.92176178 178.356784,6.39973876 177.678769,7.16666667 L177.678769,15.7266667 L175.566769,15.7266667 L175.566769,7.33333333 C175.657354,6.36351316 175.515933,5.38628134 175.153846,4.48 L177.157538,4 C177.42551,4.49137017 177.560709,5.04233892 177.550154,5.6 C178.379253,4.65798222 179.556596,4.08183102 180.819692,4 C182.021286,4.00220067 183.105525,4.71057695 183.574769,5.8 C184.447171,4.73859054 185.731232,4.08573469 187.115077,4 C188.922462,4 190.08,5.11333333 190.08,7.21333333 L190.08,15.7266667 L190.066462,15.7266667 Z M201.154462,10.46 L194.107692,10.46 L194.107692,10.7333333 C194.052974,11.5223319 194.219219,12.3109851 194.588308,13.0133333 C195.17748,13.8886697 196.190165,14.3949345 197.255385,14.3466667 C198.31254,14.3555851 199.332771,13.9641769 200.105231,13.2533333 L200.910769,14.5066667 C199.811342,15.4800631 198.381712,16.0128081 196.903385,16 C193.688,16 191.718154,13.6933333 191.718154,9.96 C191.718154,7.96 192.110769,6.69333333 193.112615,5.53333333 C193.961703,4.49810616 195.255043,3.91554111 196.605538,3.96 C197.784412,3.91561321 198.927514,4.36350541 199.753231,5.19333333 C200.775385,6.22 201.140923,7.49333333 201.168,10.12 L201.168,10.48 L201.154462,10.46 Z M198.927385,8.91333333 C198.983655,7.99893439 198.731386,7.09186689 198.209846,6.33333333 C197.812863,5.82424569 197.196362,5.52807017 196.544615,5.53333333 C194.926769,5.53333333 194.114462,6.83333333 194.114462,8.91333333 L198.927385,8.91333333 Z M211.646769,15.7266667 L209.541538,15.7266667 L209.541538,8 C209.541538,6.97333333 209.446769,6.61333333 209.169231,6.24666667 C208.871551,5.91995701 208.435513,5.74966523 207.991385,5.78666667 C206.881001,5.92332904 205.85752,6.44861099 205.107692,7.26666667 L205.107692,15.7266667 L202.995692,15.7266667 L202.995692,7.22666667 C203.056112,6.29906237 202.9058,5.36985923 202.555692,4.50666667 L204.586462,3.96 C204.865043,4.50498707 205.000052,5.1101983 204.979077,5.72 C205.446267,5.30468464 205.949065,4.92995415 206.481846,4.6 C207.136337,4.22805383 207.878822,4.032598 208.634462,4.03333333 C209.783902,3.99471177 210.847225,4.63089299 211.342154,5.65333333 C211.533229,6.10738927 211.627689,6.59522342 211.619692,7.08666667 L211.619692,15.7533333 L211.646769,15.7266667 Z M219.505846,4.30666667 L218.923692,5.78666667 L216.615385,5.78666667 L216.615385,12.6666667 C216.615385,14.08 216.960615,14.5133333 218.118154,14.5133333 C218.493907,14.5172952 218.865957,14.4399161 219.208,14.2866667 L219.458462,15.56 C218.805511,15.8827379 218.083764,16.0472989 217.353231,16.04 C216.651516,16.0671008 215.95996,15.8681604 215.383385,15.4733333 C214.902769,15.04 214.530462,14.8066667 214.530462,13.1466667 L214.530462,5.81333333 L213.163077,5.81333333 L213.163077,4.30666667 L214.584615,4.30666667 C214.571661,3.33156241 214.616867,2.35655043 214.72,1.38666667 L216.92,0.886666667 C216.832,1.70666667 216.716923,3.14 216.716923,4.30666667 L219.505846,4.30666667 Z M21.7089231,10.46 L14.6147692,10.46 L14.6147692,10.7333333 C14.5620641,11.5272309 14.7305928,12.3202236 15.1021538,13.0266667 C15.7007239,13.9126088 16.7310465,14.4199646 17.8098462,14.36 C18.8723433,14.3691742 19.897671,13.9752835 20.6732308,13.26 L21.4923077,14.52 C20.3728741,15.4942954 18.9245275,16.0220642 17.4307692,16 C14.1950769,16 12.2184615,13.68 12.2184615,9.92666667 C12.2184615,7.92666667 12.6110769,6.64666667 13.6129231,5.48 C14.4696908,4.44327364 15.7696742,3.86110089 17.1261538,3.90666667 C18.3156242,3.85863356 19.470601,4.30636395 20.3076923,5.14 C21.3298462,6.17333333 21.7021538,7.46 21.7224615,10.0933333 L21.7224615,10.46 L21.7089231,10.46 Z M19.4750769,8.9 C19.5308186,7.98356962 19.278659,7.07455517 18.7575385,6.31333333 C18.3570159,5.80046248 17.7357223,5.50192423 17.0787692,5.50666667 C15.4541538,5.50666667 14.6350769,6.84 14.6350769,8.9 L19.4750769,8.9 Z M37.7926154,4.27333333 L34.5230769,15.8466667 L32.4923077,15.8466667 L30.7932308,9.58666667 C30.5833846,8.78666667 30.0756923,6.88666667 30.0756923,6.88666667 L30.0012308,6.88666667 C30.0012308,6.88666667 29.5409231,8.83333333 29.3784615,9.45333333 L27.632,15.8466667 L25.6012308,15.8466667 L22.3384615,4.36 L24.5316923,4 L26.0209231,10.44 C26.2781538,11.5866667 26.6233846,13.26 26.6233846,13.26 L26.6978462,13.26 C26.6978462,13.26 26.9550769,11.6333333 27.2326154,10.6466667 L28.9993846,4.25333333 L31.2129231,4.25333333 L32.8375385,10.46 C33.1624615,11.7 33.5144615,13.1266667 33.5144615,13.26 L33.6092308,13.26 C33.6092308,13.14 33.9815385,11.26 34.144,10.5333333 L35.5858462,4.25333333 L37.7926154,4.27333333 Z M59.5015385,10.46 L52.4073846,10.46 L52.4073846,10.7333333 C52.3546795,11.5272309 52.5232082,12.3202236 52.8947692,13.0266667 C53.4952114,13.9105194 54.5242358,14.417236 55.6024615,14.36 C56.6627535,14.3681439 57.685594,13.9742776 58.4590769,13.26 L59.2781538,14.52 C58.1567098,15.4894684 56.708582,16.0124035 55.2166154,15.9866667 C51.9809231,15.9866667 50.0043077,13.6666667 50.0043077,9.91333333 C50.0043077,7.91333333 50.3969231,6.63333333 51.3987692,5.46666667 C52.2541697,4.42744801 53.5543626,3.84271422 54.912,3.88666667 C56.0968272,3.84242319 57.2461337,4.28985942 58.08,5.12 C59.1021538,6.15333333 59.4744615,7.44 59.4947692,10.0733333 L59.4947692,10.44 L59.5015385,10.46 Z M57.2676923,8.9 C57.323434,7.98356962 57.0712744,7.07455517 56.5501538,6.31333333 C56.1496313,5.80046248 55.5283377,5.50192423 54.8713846,5.50666667 C53.2467692,5.50666667 52.4344615,6.84 52.4344615,8.9 L57.2676923,8.9 Z M70.4947692,14.8133333 L69.3981538,16.2333333 C68.6541003,15.9430279 68.0822866,15.3382539 67.8412308,14.5866667 C67.043092,15.5739852 65.8186547,16.1324485 64.5378462,16.0933333 C62.2092308,16.0933333 60.7673846,14.9266667 60.7673846,12.7266667 C60.7673846,10.06 62.9335385,8.64666667 66.6972308,8.64666667 C66.9815385,8.64666667 67.2116923,8.64666667 67.5163077,8.64666667 L67.5163077,7.91333333 C67.5163077,6.58 67.3267692,5.64666667 65.7021538,5.64666667 C64.3962234,5.72060654 63.1444243,6.18582631 62.1144615,6.98 L61.1396923,5.44 C62.5899627,4.48894847 64.2851278,3.9640563 66.0270769,3.92666667 C67.7261538,3.92666667 68.9581538,4.54666667 69.4116923,5.76 C69.6230849,6.40491258 69.7035878,7.08448235 69.6486154,7.76 C69.6486154,8.58 69.5538462,10.3466667 69.5538462,12.02 C69.5538462,13.6933333 69.6012308,14.24 70.5083077,14.7933333 L70.4947692,14.8133333 Z M67.4689231,10.1466667 C67.144,10.1466667 66.9544615,10.1 66.792,10.1 C65.1876923,10.1 64.2061538,10.4 63.7390769,10.9266667 C63.311386,11.3780651 63.0931963,11.9840856 63.1366154,12.6 C63.1366154,13.86 63.8135385,14.6 64.9778462,14.6 C66.0069084,14.5568915 66.9362166,13.9813882 67.4215385,13.0866667 L67.4892308,10.1533333 L67.4689231,10.1466667 Z M75.592,15.76 C75.1659382,15.9440643 74.7030718,16.0306765 74.2381538,16.0133333 C73.5183171,16.0712946 72.8233896,15.7393103 72.424,15.1466667 C72.072,14.66 71.984,14.2733333 71.984,13.1466667 L71.984,3.81333333 C72.0339451,2.69060669 71.9567512,1.56589434 71.7538462,0.46 L73.9876923,2.36847579e-15 C74.1862468,1.08165668 74.2566666,2.18235322 74.1975385,3.28 L74.1975385,12.5666667 C74.1975385,13.78 74.2652308,14.0533333 74.4953846,14.26 C74.6926046,14.432864 74.9663982,14.4933452 75.2196923,14.42 L75.592,15.7533333 L75.592,15.76 Z M86.2129231,14.8466667 L85.1163077,16.2666667 C84.3722542,15.9763612 83.8004404,15.3715872 83.5593846,14.62 C82.7612458,15.6073186 81.5368085,16.1657818 80.256,16.1266667 C77.9273846,16.1266667 76.4855385,14.96 76.4855385,12.76 C76.4855385,10.0933333 78.6516923,8.68 82.4153846,8.68 C82.6996923,8.68 82.9298462,8.68 83.2344615,8.68 L83.2344615,7.91333333 C83.2344615,6.58 83.0449231,5.64666667 81.4203077,5.64666667 C80.1143772,5.72060654 78.8625782,6.18582631 77.8326154,6.98 L76.8578462,5.46666667 C78.3081165,4.51561514 80.0032817,3.99072297 81.7452308,3.95333333 C83.4443077,3.95333333 84.6763077,4.57333333 85.1298462,5.78666667 C85.3380931,6.43220823 85.4162755,7.11160012 85.36,7.78666667 C85.36,8.60666667 85.272,10.3733333 85.272,12.0466667 C85.272,13.72 85.3193846,14.2666667 86.2264615,14.82 L86.2129231,14.8466667 Z M83.1870769,10.18 C82.8621538,10.18 82.6726154,10.1333333 82.5101538,10.1333333 C80.9058462,10.1333333 79.9243077,10.4333333 79.4572308,10.96 C79.0295398,11.4113984 78.8113501,12.017419 78.8547692,12.6333333 C78.8547692,13.8933333 79.5316923,14.6333333 80.696,14.6333333 C81.7250622,14.5902249 82.6543704,14.0147215 83.1396923,13.12 L83.2073846,10.1866667 L83.1870769,10.18 Z M108.064,15.82 L106.033231,15.82 C105.921794,15.4690339 105.85139,15.1066896 105.823385,14.74 C105.059709,15.5726766 103.963433,16.0333013 102.824615,16 C99.8461538,16 98.0861538,13.8 98.0861538,10.18 C98.0861538,7.70666667 98.9458462,5.80666667 100.529846,4.79333333 C101.205623,4.35179801 102.000139,4.1196087 102.811077,4.12666667 C103.91855,4.09913685 104.972656,4.59466643 105.647385,5.46 C105.647385,5.14 105.6,3.38666667 105.6,2.60666667 L105.6,0.16 L107.745846,0.506666667 L107.745846,11.9 C107.669186,13.193107 107.778576,14.4903937 108.070769,15.7533333 L108.064,15.82 Z M105.6,12.84 L105.6,6.84 C104.997893,6.11322562 104.080417,5.71218701 103.129231,5.76 C102.285683,5.75044298 101.505232,6.19880801 101.098462,6.92666667 C100.615013,7.91059082 100.407032,9.00378141 100.496,10.0933333 C100.496,12.3133333 100.773538,12.9333333 101.403077,13.5733333 C101.861047,14.0089397 102.488178,14.2277846 103.122462,14.1733333 C104.131261,14.2056664 105.077993,13.6947691 105.593231,12.84 L105.6,12.84 Z M96.272,15.7533333 L94.1532308,15.7533333 L94.1532308,8 C94.1532308,6.96666667 94.0652308,6.6 93.7809231,6.23333333 C93.4780282,5.9105918 93.0410009,5.74334845 92.5963077,5.78 C91.4885033,5.91540877 90.4660375,6.43544224 89.7126154,7.24666667 L89.7126154,15.7533333 L88.6363077,15.7533333 C87.9593846,15.7533333 87.5938462,15.2533333 87.5938462,14.4666667 L87.5938462,7.20666667 C87.6552824,6.27684427 87.5049523,5.3452528 87.1538462,4.48 L89.1846154,3.92666667 C89.4632086,4.47403474 89.5981858,5.08139712 89.5772308,5.69333333 C90.0475772,5.27404074 90.5550316,4.89698537 91.0935385,4.56666667 C91.746648,4.19729538 92.4862488,4.00198449 93.2393846,4 C94.4041412,3.95636462 95.4839815,4.59811924 95.9876923,5.63333333 C96.1787553,6.08972748 96.2731965,6.57973299 96.2652308,7.07333333 L96.2652308,15.74 L96.272,15.7533333 Z" id="Shape"></path>
        </g>
    </g>
</svg>